HIERARCHY
ROOT Hips
{
	OFFSET 0.00000 0.00000 0.00000
	CHANNELS 6 Xposition Yposition Zposition Zrotation Yrotation Xrotation 
	JOINT LHipJoint
	{
		OFFSET 0 0 0
		CHANNELS 3 Zrotation Yrotation Xrotation
		JOINT LeftHip
		{
			OFFSET 1.09156 -1.61406 0.76500
			CHANNELS 3 Zrotation Yrotation Xrotation
			JOINT LeftKnee
			{
				OFFSET 2.33750 -6.42225 0.00000
				CHANNELS 3 Zrotation Yrotation Xrotation
				JOINT LeftAnkle
				{
					OFFSET 2.49247 -6.84800 0.00000
					CHANNELS 3 Zrotation Yrotation Xrotation
					JOINT LeftToe
					{
						OFFSET 0.15312 -0.42069 1.45461
						CHANNELS 3 Zrotation Yrotation Xrotation
						End Site
						{
							OFFSET 0.00000 -0.00000 0.77046
						}
					}
				}
			}
		}
	}
	JOINT RHipJoint
	{
		OFFSET 0 0 0
		CHANNELS 3 Zrotation Yrotation Xrotation
		JOINT RightHip
		{
			OFFSET -0.99883 -1.61406 0.76500
			CHANNELS 3 Zrotation Yrotation Xrotation
			JOINT RightKnee
			{
				OFFSET -2.36877 -6.50815 0.00000
				CHANNELS 3 Zrotation Yrotation Xrotation
				JOINT RightAnkle
				{
					OFFSET -2.53452 -6.96353 0.00000
					CHANNELS 3 Zrotation Yrotation Xrotation
					JOINT RightToe
					{
						OFFSET -0.13156 -0.36145 1.63237
						CHANNELS 3 Zrotation Yrotation Xrotation
						End Site
						{
							OFFSET -0.00000 -0.00000 0.84979
						}
					}
				}
			}
		}
	}
	JOINT lowerback
	{
		OFFSET 0 0 0
		CHANNELS 3 Zrotation Yrotation Xrotation
		JOINT Chest
		{
			OFFSET -0.02431 1.98242 -0.13616
			CHANNELS 3 Zrotation Yrotation Xrotation
			JOINT Chest2
			{
				OFFSET 0.03629 1.98974 -0.02954
				CHANNELS 3 Zrotation Yrotation Xrotation
				JOINT lowerneck
				{
					OFFSET 0 0 0
					CHANNELS 3 Zrotation Yrotation Xrotation
					JOINT Neck
					{
						OFFSET 0.09349 1.40783 0.22333
						CHANNELS 3 Zrotation Yrotation Xrotation
						JOINT Head
						{
							OFFSET -0.04273 1.44500 -0.06495
							CHANNELS 3 Zrotation Yrotation Xrotation
							End Site
							{
								OFFSET -0.02251 1.44600 -0.04544
							}
						}
					}
				}
				JOINT LeftCollar
				{
					OFFSET 0 0 0
					CHANNELS 3 Zrotation Yrotation Xrotation
					JOINT LeftShoulder
					{
						OFFSET 3.49137 0.85126 -0.29740
CHANNELS 3 Zrotation Xrotation Yrotation
						JOINT LeftElbow
						{
OFFSET 0 -5.060350 0.000000
CHANNELS 3 Zrotation Xrotation Yrotation
							JOINT LeftWrist
							{
OFFSET 0 -3.147800 0.000000
CHANNELS 3 Zrotation Xrotation Yrotation
								JOINT lhand
								{
									OFFSET 0 0 0
CHANNELS 3 Zrotation Xrotation Yrotation
									JOINT LFingers
									{
OFFSET 0 -0.606750 0.000000
CHANNELS 3 Zrotation Xrotation Yrotation
										End Site
										{
OFFSET 0 -0.489180 0.000000
										}
									}
								}
								JOINT LThumb
								{
OFFSET 0 0.000000 0.000000
CHANNELS 3 Zrotation Xrotation Yrotation
									End Site
									{
OFFSET 0 -0.496640 0.496640
									}
								}
							}
						}
					}
				}
				JOINT RightCollar
				{
					OFFSET 0 0 0
					CHANNELS 3 Zrotation Yrotation Xrotation
					JOINT RightShoulder
					{
						OFFSET -3.28101 0.69707 0.00747
CHANNELS 3 Zrotation Xrotation Yrotation
						JOINT RightElbow
						{
OFFSET 0 -5.122730 -0.000000
CHANNELS 3 Zrotation Xrotation Yrotation
							JOINT RightWrist
							{
OFFSET 0 -3.422000 0.000000
CHANNELS 3 Zrotation Xrotation Yrotation
								JOINT rhand
								{
									OFFSET 0 0 0
CHANNELS 3 Zrotation Xrotation Yrotation
									JOINT RFingers
									{
OFFSET 0 -0.704600 0.000000
CHANNELS 3 Zrotation Xrotation Yrotation
										End Site
										{
OFFSET 0 -0.568070 0.000000
										}
									}
								}
								JOINT RThumb
								{
OFFSET 0 0.000000 0.000000
CHANNELS 3 Zrotation Xrotation Yrotation
									End Site
									{
OFFSET 0 -0.576740 0.576740
									}
								}
							}
						}
					}
				}
			}
		}
	}
}
MOTION
Frames: 12
Frame Time: 0.008333333333333333
5.346634 15.945857 1.698812 -222.809820 -80.167669 226.224594 0.000000 0.000000 0.000000 -32.600944 3.472052 3.251684 0.830419 5.813615 16.244739 0.122993 -17.611618 -13.510683 6.924036 15.267581 48.586270 0.000000 0.000000 0.000000 11.933704 14.566716 -31.329458 -1.147415 -6.801777 19.129333 -0.254028 -6.797739 -14.359398 -0.025293 -1.022264 2.810154 -8.778413 -5.951835 1.465102 -1.825283 -8.048428 1.618134 2.886291 -4.153345 1.799119 -4.707984 -6.107640 -4.552695 2.608963 -8.597234 -14.292254 1.801279 -4.401981 -3.541224 0.000000 0.000000 0.000000 7.556370 -17.195577 -22.354723 21.258111 -32.128303 6.186708 18.461766 7.435298 -43.813940 0.000000 0.000000 0.000000 -7.125000 0.000000 0.000000 -32.789315 73.063244 22.450255 0.000000 0.000000 0.000000 -1.379611 6.333683 12.137469 -10.620215 -17.702740 -1.659380 -23.842827 -5.504783 -33.532674 0.000000 0.000000 0.000000 7.125000 0.000000 0.000000 4.713129 -5.836476 5.184623
5.172206 15.926114 1.681165 -221.921942 -80.632184 225.330870 0.000000 0.000000 0.000000 -32.092227 3.643619 3.932136 0.829996 5.812122 16.240266 0.124934 -17.580523 -13.508591 6.872995 15.224018 48.392405 0.000000 0.000000 0.000000 12.678759 14.392980 -31.215479 -1.131979 -6.757318 18.998347 -0.233677 -6.910470 -14.169937 -0.011299 -0.680738 1.870785 -8.347519 -5.946175 1.458474 -1.703133 -8.030819 1.656661 2.779457 -4.138997 1.798516 -4.828223 -6.180095 -4.465568 2.689909 -8.676458 -14.202948 1.848208 -4.435170 -3.513611 0.000000 0.000000 0.000000 7.534234 -17.541699 -22.807308 21.562406 -32.478753 6.349388 17.672940 6.888931 -43.443186 0.000000 0.000000 0.000000 -7.125000 0.000000 0.000000 -32.878953 72.495745 22.126170 0.000000 0.000000 0.000000 -1.071261 5.564716 8.052283 -9.713327 -16.289300 -1.393942 -24.195857 -1.877696 -34.215169 0.000000 0.000000 0.000000 7.125000 0.000000 0.000000 4.637740 -6.616639 5.157263
4.997489 15.911064 1.656362 -219.007442 -81.134886 222.310369 0.000000 0.000000 0.000000 -31.275969 3.916178 4.535044 0.860646 5.915525 16.539635 0.141202 -17.551758 -13.634851 6.865491 15.217549 48.363826 0.000000 0.000000 0.000000 13.831155 14.371308 -30.877778 -1.160173 -6.837826 19.235925 -0.212659 -6.759823 -13.695114 -0.009466 -0.622570 1.710807 -7.878816 -5.944476 1.639843 -1.436956 -8.034156 1.712850 2.818467 -4.133519 1.729450 -4.953406 -6.284944 -4.523432 2.683552 -8.817817 -14.197809 1.864495 -4.500773 -3.491387 0.000000 0.000000 0.000000 7.508366 -17.844422 -23.043702 21.823988 -32.777315 6.490416 17.009759 6.319544 -43.149525 0.000000 0.000000 0.000000 -7.125000 0.000000 0.000000 -33.006155 72.034778 21.898068 0.000000 0.000000 0.000000 -1.214313 5.287987 6.806184 -9.306205 -15.646988 -1.281591 -24.241448 -0.440707 -34.129828 0.000000 0.000000 0.000000 7.125000 0.000000 0.000000 4.597786 -6.540521 5.107160
4.823865 15.887833 1.647243 -219.976927 -81.230158 223.430022 0.000000 0.000000 0.000000 -31.361254 3.960927 4.806820 0.916088 6.097981 17.069027 0.181672 -17.484940 -13.950909 6.755157 15.121801 47.941445 0.000000 0.000000 0.000000 14.280359 13.459133 -31.211811 -1.235407 -7.047550 19.856594 -0.269654 -5.195854 -13.150104 -0.045073 -1.307021 3.594787 -7.939619 -6.010538 1.719480 -1.362592 -8.136910 1.541622 2.945134 -4.173968 1.537727 -4.859888 -6.292270 -4.462799 2.601584 -8.829880 -14.109029 1.821344 -4.505652 -3.477926 0.000000 0.000000 0.000000 7.441627 -17.935309 -23.156349 22.051880 -33.035451 6.614200 17.054910 6.452815 -43.386613 0.000000 0.000000 0.000000 -7.125000 0.000000 0.000000 -33.456887 72.233899 22.356597 0.000000 0.000000 0.000000 -1.475288 5.436648 6.516069 -9.131530 -15.369847 -1.234774 -23.798129 0.313833 -33.926175 0.000000 0.000000 0.000000 7.125000 0.000000 0.000000 4.805042 -6.227619 5.315730
4.645911 15.857268 1.639698 -221.864461 -81.034057 225.606851 0.000000 0.000000 0.000000 -31.794035 4.084842 4.810600 0.988089 6.326383 17.734397 0.248413 -17.321101 -14.432746 6.431214 14.832888 46.687361 0.000000 0.000000 0.000000 14.351105 12.595731 -31.776178 -1.361963 -7.385907 20.864242 -0.312708 -3.434345 -12.405154 -0.074469 -1.758897 4.839821 -8.070243 -5.955871 1.411244 -1.504313 -8.042991 1.405529 2.847589 -4.124867 1.555283 -5.210418 -6.427046 -3.857507 2.979306 -9.025599 -14.686000 2.058788 -4.596942 -3.754594 0.000000 0.000000 0.000000 7.454187 -18.073921 -23.466318 22.224256 -33.229512 6.708350 17.871273 7.171375 -43.512386 0.000000 0.000000 0.000000 -7.125000 0.000000 0.000000 -32.798414 72.619422 22.153331 0.000000 0.000000 0.000000 -1.414293 5.629387 5.446648 -8.978381 -15.125899 -1.194492 -23.536997 1.407995 -34.077566 0.000000 0.000000 0.000000 7.125000 0.000000 0.000000 4.974469 -6.320141 5.511613
4.460358 15.824944 1.610358 -219.895442 -81.307657 223.573578 0.000000 0.000000 0.000000 -31.196919 4.545726 5.163496 1.063498 6.556283 18.407409 0.265795 -17.363433 -14.607274 6.207573 14.626416 45.808914 0.000000 0.000000 0.000000 15.214804 12.561530 -31.627277 -1.555662 -7.870818 22.322764 -0.309124 -2.785272 -11.905641 -0.078566 -1.806349 4.970803 -7.689668 -5.854729 1.047607 -1.469115 -7.855212 1.708585 2.622977 -4.048476 2.005894 -5.352258 -6.573977 -4.070905 3.299995 -9.191392 -14.796019 2.182396 -4.689509 -3.725596 0.000000 0.000000 0.000000 7.517265 -18.513634 -23.751681 22.397069 -33.422783 6.803293 18.677162 7.772380 -43.355456 0.000000 0.000000 0.000000 -7.125000 0.000000 0.000000 -31.532378 72.783252 21.359468 0.000000 0.000000 0.000000 -1.322027 5.132493 4.325159 -8.707474 -14.692990 -1.124720 -23.563658 2.419710 -33.923780 0.000000 0.000000 0.000000 7.125000 0.000000 0.000000 4.933479 -6.169898 5.454503
4.271975 15.790408 1.592114 -219.119883 -81.686552 222.815364 0.000000 0.000000 0.000000 -30.728272 4.790491 5.567940 1.138507 6.776044 19.053675 0.260785 -17.428884 -14.602524 6.071693 14.497385 45.268625 0.000000 0.000000 0.000000 16.104130 11.848306 -31.733525 -1.784899 -8.399953 23.937417 -0.354237 -1.730053 -12.012231 -0.106960 -2.107398 5.802623 -7.390477 -5.935225 1.171410 -1.297105 -7.975493 1.564404 2.658928 -4.093084 1.782820 -5.381520 -6.704483 -4.128871 3.055665 -9.390371 -14.711199 2.100805 -4.778036 -3.686979 0.000000 0.000000 0.000000 7.260043 -18.141688 -23.559026 22.677705 -33.734450 6.958542 18.697668 7.936762 -43.425235 0.000000 0.000000 0.000000 -7.125000 0.000000 0.000000 -31.659286 72.845320 21.491163 0.000000 0.000000 0.000000 -1.822891 5.588329 6.095104 -8.794651 -14.832040 -1.147405 -23.425814 1.223162 -33.036003 0.000000 0.000000 0.000000 7.125000 0.000000 0.000000 4.861487 -5.232383 5.302876
4.079358 15.754001 1.578945 -222.174713 -81.633275 226.186107 0.000000 0.000000 0.000000 -31.070576 4.823881 5.941526 1.149983 6.809018 19.150803 0.196823 -17.342881 -13.992329 6.088469 14.513307 45.335287 0.000000 0.000000 0.000000 16.194016 10.785893 -32.377734 -2.029748 -8.924845 25.562593 -0.410213 -0.226214 -12.200684 -0.123241 -2.245051 6.184050 -7.641293 -6.001686 0.834794 -1.346467 -8.043233 1.336629 2.716443 -4.122699 1.769087 -5.300379 -6.869365 -4.015450 2.907149 -9.629980 -14.677715 2.043602 -4.892767 -3.696569 0.000000 0.000000 0.000000 7.108724 -17.852604 -23.639948 22.796980 -33.866052 7.024834 18.747126 7.949459 -43.263300 0.000000 0.000000 0.000000 -7.125000 0.000000 0.000000 -31.255195 72.735041 21.131209 0.000000 0.000000 0.000000 -2.052976 5.933607 6.204028 -8.765455 -14.784064 -1.141243 -23.243435 1.460478 -32.452568 0.000000 0.000000 0.000000 7.125000 0.000000 0.000000 4.867457 -4.594681 5.260171
3.873206 15.763208 1.559540 -223.710596 -81.858654 227.888028 0.000000 0.000000 0.000000 -30.910028 4.949886 6.657684 1.119506 6.720973 18.891436 0.087255 -17.264157 -12.953915 6.124040 14.547432 45.477506 0.000000 0.000000 0.000000 16.597640 9.945829 -32.878051 -2.244113 -9.355340 26.914550 -0.494441 1.617457 -12.809452 -0.349766 -3.700694 10.246753 -7.580312 -6.074526 0.541333 -1.309814 -8.118394 1.181260 2.694660 -4.154609 1.776266 -5.408642 -6.962832 -3.932411 2.929285 -9.743367 -14.565003 2.068132 -4.941125 -3.660480 0.000000 0.000000 0.000000 6.933973 -17.462997 -23.709114 22.887708 -33.965739 7.075451 18.946678 8.048308 -42.967139 0.000000 0.000000 0.000000 -7.125000 0.000000 0.000000 -30.395767 72.570773 20.415069 0.000000 0.000000 0.000000 -1.946821 5.587485 2.395449 -8.198393 -13.873726 -0.999399 -23.208187 5.050764 -32.909979 0.000000 0.000000 0.000000 7.125000 0.000000 0.000000 4.960667 -5.054131 5.397944
3.661623 15.789660 1.531750 -222.620618 -82.454353 226.806573 0.000000 0.000000 0.000000 -30.108979 5.152475 7.624743 1.080180 6.605937 18.553181 0.024570 -16.924315 -12.133044 5.880857 14.311171 44.500509 0.000000 0.000000 0.000000 16.780156 10.611107 -32.845144 -2.404004 -9.660767 27.885311 -0.409212 1.983603 -11.530911 -0.606520 -4.976474 13.843114 -7.054521 -6.210280 0.394093 -1.166467 -8.285447 1.117142 2.540623 -4.228272 1.755628 -5.943543 -6.834761 -3.037067 3.532878 -9.575202 -15.222118 2.435847 -4.846781 -4.017324 0.000000 0.000000 0.000000 6.859005 -17.079503 -23.497574 22.933597 -34.016104 7.101078 19.063913 8.067211 -42.960240 0.000000 0.000000 0.000000 -7.125000 0.000000 0.000000 -30.242788 72.606973 20.329803 0.000000 0.000000 0.000000 -2.029457 5.628767 1.444168 -8.012541 -13.573179 -0.955087 -23.092978 6.304319 -32.712907 0.000000 0.000000 0.000000 7.125000 0.000000 0.000000 4.993028 -4.826822 5.415299
3.456337 15.791543 1.504472 -223.441409 -82.817175 227.722082 0.000000 0.000000 0.000000 -29.754060 5.134015 8.466273 1.059026 6.543014 18.368355 -0.008817 -16.319013 -11.375605 5.507359 13.933325 42.971152 0.000000 0.000000 0.000000 16.512131 11.331187 -32.683412 -2.516601 -9.867894 28.550111 -0.265669 0.612713 -9.529571 -0.447293 -4.269308 11.838425 -6.898731 -6.364217 0.079222 -1.086840 -8.461517 1.140776 2.489317 -4.319729 1.962749 -5.502081 -6.891866 -3.546232 3.079734 -9.668063 -14.918041 2.169735 -4.902010 -3.849959 0.000000 0.000000 0.000000 6.745204 -16.955973 -23.116997 22.865562 -33.941565 7.063076 18.953768 7.974103 -43.418982 0.000000 0.000000 0.000000 -7.125000 0.000000 0.000000 -31.348003 72.931728 21.325491 0.000000 0.000000 0.000000 -2.152244 5.320491 0.625155 -7.724288 -13.104931 -0.888554 -23.227408 7.339924 -32.572012 0.000000 0.000000 0.000000 7.125000 0.000000 0.000000 4.895261 -4.713298 5.299711
3.256816 15.787681 1.482826 -225.299354 -83.018545 229.690441 0.000000 0.000000 0.000000 -29.633231 4.958946 8.849246 1.124361 6.734253 18.930716 -0.092140 -15.956839 -10.213656 5.416405 13.837557 42.591340 0.000000 0.000000 0.000000 16.337546 11.438084 -32.509534 -2.615019 -10.043659 29.118574 -0.127177 -0.932267 -7.121048 -0.078279 -1.759963 4.843708 -6.915488 -6.432413 -0.183534 -1.007635 -8.530212 1.113496 2.543731 -4.356974 2.102528 -5.706095 -7.058397 -3.614439 3.046271 -9.910117 -15.037865 2.196314 -5.013668 -3.863426 0.000000 0.000000 0.000000 6.364555 -16.653925 -22.817982 22.819737 -33.891052 7.037501 18.918736 8.092590 -43.844518 0.000000 0.000000 0.000000 -7.125000 0.000000 0.000000 -32.330564 73.251409 22.245306 0.000000 0.000000 0.000000 -2.304114 4.987158 -0.652272 -7.504061 -12.745801 -0.839350 -23.146044 8.446392 -32.527280 0.000000 0.000000 0.000000 7.125000 0.000000 0.000000 4.933523 -4.649217 5.336364
